<?xml version="1.0" encoding="UTF-8"?>
<svg width="333px" height="97px" viewBox="0 0 333 97" version="1.1" xmlns="http://www.w3.org/2000/svg" xmlns:xlink="http://www.w3.org/1999/xlink" xmlns:sketch="http://www.bohemiancoding.com/sketch/ns">
    <!-- Generator: Sketch 3.5.1 (25234) - http://www.bohemiancoding.com/sketch -->
    <title>Blean</title>
    <desc>Created with Sketch.</desc>
    <defs></defs>
    <g id="Welcome" stroke="none" stroke-width="1" fill="none" fill-rule="evenodd" sketch:type="MSPage">
        <g id="Desktop-HD" sketch:type="MSArtboardGroup" transform="translate(-788.000000, -358.000000)" fill="#66ADDD">
            <g id="Content" sketch:type="MSLayerGroup" transform="translate(582.000000, 358.000000)">
                <path d="M281.411908,6.92 C284.691924,7.0800008 287.611895,7.7399942 290.171908,8.9 C292.73192,10.0600058 294.7719,11.6599898 296.291908,13.7 C297.811915,15.7400102 298.671907,18.1999856 298.871908,21.08 C299.071909,23.9600144 298.451915,27.199982 297.011908,30.8 C295.4919,34.6400192 293.791917,37.8999866 291.911908,40.58 C290.031898,43.2600134 288.211916,45.4399916 286.451908,47.12 C284.371897,49.12001 282.331918,50.7599936 280.331908,52.04 C281.451913,53.240006 282.291905,54.7599908 282.851908,56.6 C283.33191,58.200008 283.551908,60.199988 283.511908,62.6 C283.471907,65.000012 282.891913,67.9599824 281.771908,71.48 C280.2519,75.880022 278.331919,79.579985 276.011908,82.58 C273.691896,85.580015 271.091922,87.9999908 268.211908,89.84 C265.331893,91.6800092 262.231924,92.999996 258.911908,93.8 C255.591891,94.600004 252.251924,95 248.891908,95 L206.171908,95 L241.451908,6.8 L281.411908,6.8 L281.411908,6.92 Z M254.891908,39.92 L259.691908,39.92 C261.051914,39.92 262.4519,39.420005 263.891908,38.42 C265.331915,37.419995 266.331905,36.2000072 266.891908,34.76 L267.731908,32.48 C268.371911,31.0399928 268.391911,29.8000052 267.791908,28.76 C267.191905,27.7199948 266.171915,27.2 264.731908,27.2 L260.051908,27.2 L254.891908,39.92 Z M244.931908,77 C246.291914,77 247.671901,76.500005 249.071908,75.5 C250.471915,74.499995 251.491904,73.2400076 252.131908,71.72 L255.131908,63.92 C255.771911,62.4799928 255.791911,61.260005 255.191908,60.26 C254.591905,59.259995 253.571915,58.76 252.131908,58.76 L247.451908,58.76 L240.011908,77 L244.931908,77 Z M340.211908,0.92 L301.811908,95 L276.011908,95 L312.011908,6.8 C312.811912,4.9599908 314.0119,3.5200052 315.611908,2.48 C317.211916,1.4399948 318.931898,0.92 320.771908,0.92 L340.211908,0.92 Z M371.531908,15.44 C376.251931,15.44 380.35189,16.0599938 383.831908,17.3 C387.311925,18.5400062 390.111897,20.3799878 392.231908,22.82 C394.351918,25.2600122 395.711905,28.2399824 396.311908,31.76 C396.911911,35.2800176 396.691913,39.3199772 395.651908,43.88 L395.291908,44.84 C394.251902,48.2800172 392.871916,51.3599864 391.151908,54.08 C389.431899,56.8000136 387.171922,59.1199904 384.371908,61.04 C381.571894,62.9600096 378.151928,64.4799944 374.111908,65.6 C370.071887,66.7200056 365.251936,67.3599992 359.651908,67.52 L368.051908,42.44 C368.691911,40.9999928 368.711911,39.780005 368.111908,38.78 C367.511905,37.779995 366.491915,37.28 365.051908,37.28 C363.051898,37.28 361.611912,37.6599962 360.731908,38.42 C359.851903,39.1800038 359.011912,40.5999896 358.211908,42.68 L347.051908,71.12 C346.171903,73.6000124 346.031905,75.1999964 346.631908,75.92 C347.231911,76.6400036 348.211901,77 349.571908,77 C353.411927,77 357.591885,76.9600004 362.111908,76.88 C366.63193,76.7999996 371.131885,76.2000056 375.611908,75.08 L375.851908,75.08 C375.931908,75.08 375.971908,75.0600002 375.971908,75.02 C375.971908,74.9799998 376.011907,74.96 376.091908,74.96 C376.811911,74.7999992 377.631903,74.6800004 378.551908,74.6 C379.471912,74.5199996 380.291904,74.5599992 381.011908,74.72 C381.731911,74.8800008 382.251906,75.1799978 382.571908,75.62 C382.891909,76.0600022 382.85191,76.7599952 382.451908,77.72 C382.451908,77.8800008 382.391908,78.059999 382.271908,78.26 C382.151907,78.460001 382.091908,78.5999996 382.091908,78.68 C380.091898,82.5200192 378.071918,85.5999884 376.031908,87.92 C373.991897,90.2400116 371.77192,92.0199938 369.371908,93.26 C366.971896,94.5000062 364.311922,95.319998 361.391908,95.72 C358.471893,96.120002 355.131926,96.32 351.371908,96.32 L339.251908,96.32 C335.81189,96.32 332.531923,95.820005 329.411908,94.82 C326.291892,93.819995 323.771917,92.120012 321.851908,89.72 C319.931898,87.319988 318.851909,84.1400198 318.611908,80.18 C318.371906,76.2199802 319.411896,71.2800296 321.731908,65.36 C322.451911,63.5199908 323.251903,61.400012 324.131908,59 C324.931912,56.9199896 325.911902,54.4000148 327.071908,51.44 C328.231913,48.4799852 329.6119,45.0400196 331.211908,41.12 C334.251923,33.3599612 338.731878,27.1400234 344.651908,22.46 C350.571937,17.7799766 357.771865,15.44 366.251908,15.44 L371.531908,15.44 Z M444.971908,95 L411.851908,95 C408.41189,95 405.131923,94.500005 402.011908,93.5 C398.891892,92.499995 396.391917,90.800012 394.511908,88.4 C392.631898,85.999988 391.571909,82.80002 391.331908,78.8 C391.091906,74.79998 392.171896,69.8400296 394.571908,63.92 C394.97191,62.719994 395.571904,61.0800104 396.371908,59 C397.011911,57.3199916 397.851902,55.1200136 398.891908,52.4 C399.931913,49.6799864 401.2519,46.4000192 402.851908,42.56 C405.891923,34.7999612 410.371878,28.5800234 416.291908,23.9 C422.211937,19.2199766 429.411865,16.88 437.891908,16.88 L438.731908,16.88 C443.21193,16.88 447.21189,17.8399904 450.731908,19.76 C451.531912,18.8799956 452.471902,18.1800026 453.551908,17.66 C454.631913,17.1399974 455.9319,16.88 457.451908,16.88 L476.651908,16.88 L444.971908,95 Z M420.371908,68.36 C419.091901,71.4000152 418.711905,73.3599956 419.231908,74.24 C419.75191,75.1200044 420.7719,75.56 422.291908,75.56 C424.85192,75.56 426.811901,74.6800088 428.171908,72.92 L435.731908,54.32 L439.691908,43.88 C440.331911,42.4399928 440.351911,41.220005 439.751908,40.22 C439.151905,39.219995 438.131915,38.72 436.691908,38.72 C434.691898,38.72 433.271912,39.0999962 432.431908,39.86 C431.591903,40.6200038 430.731912,41.99999 429.851908,44 L420.371908,68.36 Z M512.771908,16.88 C517.971934,16.88 522.29189,17.3599952 525.731908,18.32 C529.171925,19.2800048 531.891898,20.559992 533.891908,22.16 C535.891918,23.760008 537.251904,25.659989 537.971908,27.86 C538.691911,30.060011 538.931909,32.3999876 538.691908,34.88 C538.691908,37.1200112 538.331911,39.23999 537.611908,41.24 L516.491908,95 L490.931908,95 L510.131908,43.4 C510.69191,42.0399932 510.71191,40.8400052 510.191908,39.8 C509.671905,38.7599948 508.731914,38.24 507.371908,38.24 C506.011901,38.24 504.631915,38.7599948 503.231908,39.8 C501.831901,40.8400052 500.811911,42.0399932 500.171908,43.4 L479.171908,95 L453.011908,95 L484.451908,16.88 L512.771908,16.88 Z" id="Blean" sketch:type="MSShapeGroup"></path>
            </g>
        </g>
    </g>
</svg>